<mxfile host="65bd71144e">
    <diagram id="pePnIlqXbLJInQgEAmPf" name="Page-1">
        <mxGraphModel dx="271" dy="501" grid="1" gridSize="10" guides="1" tooltips="1" connect="1" arrows="1" fold="1" page="0" pageScale="1" pageWidth="3300" pageHeight="4681" math="0" shadow="0">
            <root>
                <mxCell id="0"/>
                <mxCell id="1" parent="0"/>
                <mxCell id="0JONFG1SsR9goqJM7D2y-17" value="" style="rounded=0;whiteSpace=wrap;html=1;" parent="1" vertex="1">
                    <mxGeometry x="540" y="20" width="920" height="510" as="geometry"/>
                </mxCell>
                <mxCell id="0JONFG1SsR9goqJM7D2y-4" value="&lt;div&gt;&lt;span&gt;Word Engine&lt;/span&gt;&lt;/div&gt;&lt;div&gt;&lt;br&gt;&lt;/div&gt;1. Choose random word&lt;br&gt;2. Compare guess and chosen word&lt;br&gt;Green, yellow highlighting&lt;br&gt;No DOM access, instead use JSON contract&lt;br&gt;Pure JS" style="rounded=0;whiteSpace=wrap;html=1;align=center;" parent="1" vertex="1">
                    <mxGeometry x="1190" y="242.5" width="240" height="170" as="geometry"/>
                </mxCell>
                <mxCell id="0JONFG1SsR9goqJM7D2y-7" value="Game Engine&lt;br&gt;Interact with User&lt;br&gt;Render UI&lt;br&gt;Check if the guess is correct and show feedback&lt;br&gt;To handle keypress event" style="rounded=0;whiteSpace=wrap;html=1;" parent="1" vertex="1">
                    <mxGeometry x="835" y="250" width="240" height="155" as="geometry"/>
                </mxCell>
                <mxCell id="0JONFG1SsR9goqJM7D2y-6" value="Persistor Layer" style="rounded=0;whiteSpace=wrap;html=1;" parent="1" vertex="1">
                    <mxGeometry x="830" y="40" width="250" height="155" as="geometry"/>
                </mxCell>
                <mxCell id="0JONFG1SsR9goqJM7D2y-8" value="" style="endArrow=classic;startArrow=classic;html=1;rounded=0;entryX=0.5;entryY=1;entryDx=0;entryDy=0;exitX=0.5;exitY=0;exitDx=0;exitDy=0;" parent="1" source="0JONFG1SsR9goqJM7D2y-7" target="0JONFG1SsR9goqJM7D2y-6" edge="1">
                    <mxGeometry width="50" height="50" relative="1" as="geometry">
                        <mxPoint x="1220" y="340" as="sourcePoint"/>
                        <mxPoint x="1270" y="290" as="targetPoint"/>
                    </mxGeometry>
                </mxCell>
                <mxCell id="0JONFG1SsR9goqJM7D2y-9" value="" style="endArrow=classic;startArrow=classic;html=1;rounded=0;exitX=1;exitY=0.5;exitDx=0;exitDy=0;entryX=0;entryY=0.5;entryDx=0;entryDy=0;" parent="1" source="0JONFG1SsR9goqJM7D2y-7" target="0JONFG1SsR9goqJM7D2y-4" edge="1">
                    <mxGeometry width="50" height="50" relative="1" as="geometry">
                        <mxPoint x="1220" y="340" as="sourcePoint"/>
                        <mxPoint x="1270" y="290" as="targetPoint"/>
                    </mxGeometry>
                </mxCell>
                <mxCell id="0JONFG1SsR9goqJM7D2y-11" value="Actor" style="shape=umlActor;verticalLabelPosition=bottom;verticalAlign=top;html=1;outlineConnect=0;" parent="1" vertex="1">
                    <mxGeometry x="450" y="297.5" width="30" height="60" as="geometry"/>
                </mxCell>
                <mxCell id="0JONFG1SsR9goqJM7D2y-12" value="" style="shape=flexArrow;endArrow=classic;startArrow=classic;html=1;rounded=0;entryX=0;entryY=0.5;entryDx=0;entryDy=0;" parent="1" source="0JONFG1SsR9goqJM7D2y-11" target="0JONFG1SsR9goqJM7D2y-7" edge="1">
                    <mxGeometry width="100" height="100" relative="1" as="geometry">
                        <mxPoint x="1190" y="310" as="sourcePoint"/>
                        <mxPoint x="1290" y="210" as="targetPoint"/>
                    </mxGeometry>
                </mxCell>
                <mxCell id="0JONFG1SsR9goqJM7D2y-13" value="Service Worker Layer" style="rounded=0;whiteSpace=wrap;html=1;" parent="1" vertex="1">
                    <mxGeometry x="560" y="460" width="880" height="40" as="geometry"/>
                </mxCell>
                <mxCell id="0JONFG1SsR9goqJM7D2y-14" value="Network (app assets, images, sound, SW.js, WW.js)" style="rounded=0;whiteSpace=wrap;html=1;" parent="1" vertex="1">
                    <mxGeometry x="560" y="570" width="880" height="40" as="geometry"/>
                </mxCell>
                <mxCell id="0JONFG1SsR9goqJM7D2y-15" value="" style="shape=flexArrow;endArrow=classic;startArrow=classic;html=1;rounded=0;entryX=0.5;entryY=1;entryDx=0;entryDy=0;" parent="1" source="0JONFG1SsR9goqJM7D2y-14" target="0JONFG1SsR9goqJM7D2y-13" edge="1">
                    <mxGeometry width="100" height="100" relative="1" as="geometry">
                        <mxPoint x="1190" y="410" as="sourcePoint"/>
                        <mxPoint x="1290" y="310" as="targetPoint"/>
                    </mxGeometry>
                </mxCell>
                <mxCell id="0JONFG1SsR9goqJM7D2y-18" value="" style="shape=flexArrow;endArrow=classic;startArrow=classic;html=1;rounded=0;exitX=0.5;exitY=0;exitDx=0;exitDy=0;entryX=0.688;entryY=0.968;entryDx=0;entryDy=0;entryPerimeter=0;" parent="1" source="0JONFG1SsR9goqJM7D2y-13" target="0JONFG1SsR9goqJM7D2y-7" edge="1">
                    <mxGeometry width="100" height="100" relative="1" as="geometry">
                        <mxPoint x="930" y="410" as="sourcePoint"/>
                        <mxPoint x="1000" y="410" as="targetPoint"/>
                    </mxGeometry>
                </mxCell>
                <mxCell id="0JONFG1SsR9goqJM7D2y-20" value="" style="rounded=0;whiteSpace=wrap;html=1;" parent="1" vertex="1">
                    <mxGeometry x="510" y="680" width="300" height="450" as="geometry"/>
                </mxCell>
                <mxCell id="0JONFG1SsR9goqJM7D2y-21" value="5,6,7 letter words Dictionary" style="rounded=0;whiteSpace=wrap;html=1;" parent="1" vertex="1">
                    <mxGeometry x="560" y="710" width="200" height="60" as="geometry"/>
                </mxCell>
                <mxCell id="0JONFG1SsR9goqJM7D2y-23" value="getRandomWord({&lt;br&gt;&lt;span style=&quot;white-space: pre&quot;&gt;&#9;&lt;/span&gt;length, exlusionList,&lt;br&gt;}): string&lt;br&gt;&lt;br&gt;match(word1, word2) : status[] | null&lt;br&gt;&lt;br&gt;null -&amp;gt; if word is not in dictionary&lt;br&gt;type status = &lt;span style=&quot;white-space: pre&quot;&gt;&#9;&lt;/span&gt;&lt;br&gt;&lt;span style=&quot;white-space: pre&quot;&gt;&#9;&lt;/span&gt;&quot;MATCH&quot; | &lt;span style=&quot;white-space: pre&quot;&gt;&#9;&lt;/span&gt;&lt;br&gt;&lt;span style=&quot;white-space: pre&quot;&gt;&#9;&lt;/span&gt;&quot;NO_MATCH&quot; | &lt;span style=&quot;white-space: pre&quot;&gt;&#9;&lt;/span&gt;&quot;PARTIAL_MATCH&quot;" style="rounded=0;whiteSpace=wrap;html=1;align=left;" parent="1" vertex="1">
                    <mxGeometry x="560" y="810" width="200" height="180" as="geometry"/>
                </mxCell>
                <mxCell id="0JONFG1SsR9goqJM7D2y-24" value="secure words with crypto" style="rounded=0;whiteSpace=wrap;html=1;" parent="1" vertex="1">
                    <mxGeometry x="560" y="1010" width="200" height="60" as="geometry"/>
                </mxCell>
                <mxCell id="0JONFG1SsR9goqJM7D2y-25" value="React Components&lt;br&gt;&lt;br&gt;Banner&lt;br&gt;ThemeToggle&lt;br&gt;WordBoard (6 Guess)&lt;br&gt;Word (5 Letter)&lt;br&gt;Letter: LetterType&lt;br&gt;&lt;br&gt;&lt;div style=&quot;text-align: left&quot;&gt;&lt;span&gt;type LetterType =&amp;nbsp;&lt;/span&gt;&lt;/div&gt;&lt;div style=&quot;text-align: left&quot;&gt;&lt;span&gt;&quot;INITIAL&quot; |&lt;/span&gt;&lt;/div&gt;&lt;div&gt;&lt;div style=&quot;text-align: left&quot;&gt;&lt;span&gt;MATCH&quot; |&amp;nbsp;&lt;/span&gt;&lt;/div&gt;&lt;span&gt;&lt;div style=&quot;text-align: left&quot;&gt;&lt;span&gt;&quot;NO_MATCH&quot; |&lt;/span&gt;&lt;span&gt;&amp;nbsp;&lt;/span&gt;&lt;/div&gt;&#9;&lt;/span&gt;&lt;/div&gt;&lt;div style=&quot;text-align: left&quot;&gt;&quot;PARTIAL_MATCH&quot;&lt;br&gt;&lt;/div&gt;&lt;div style=&quot;text-align: left&quot;&gt;&lt;br&gt;&lt;/div&gt;&lt;div style=&quot;text-align: left&quot;&gt;Keyboard (26 + ENT + BKS)&lt;/div&gt;&lt;div style=&quot;text-align: left&quot;&gt;Key: LetterType&lt;/div&gt;&lt;div style=&quot;text-align: left&quot;&gt;&lt;br&gt;&lt;/div&gt;&lt;div style=&quot;text-align: left&quot;&gt;InputHandler (Keyboard + WordBoard)&lt;/div&gt;" style="rounded=0;whiteSpace=wrap;html=1;" parent="1" vertex="1">
                    <mxGeometry x="870" y="691" width="220" height="440" as="geometry"/>
                </mxCell>
                <mxCell id="0JONFG1SsR9goqJM7D2y-26" value="Configurations&lt;br&gt;&lt;br&gt;WordLength (5, 6, 7)&lt;br&gt;WordGuessCount (6, 8, 10)" style="rounded=0;whiteSpace=wrap;html=1;" parent="1" vertex="1">
                    <mxGeometry x="1160" y="680" width="260" height="440" as="geometry"/>
                </mxCell>
                <mxCell id="0JONFG1SsR9goqJM7D2y-27" value="&lt;br&gt;Stats&lt;br&gt;&lt;br&gt;Played, Win %, Loss %, &lt;br&gt;Guess Distribution,&lt;br&gt;Share Stats" style="rounded=0;whiteSpace=wrap;html=1;" parent="1" vertex="1">
                    <mxGeometry x="510" y="1200" width="230" height="200" as="geometry"/>
                </mxCell>
                <mxCell id="0JONFG1SsR9goqJM7D2y-29" value="Theme (Device preferred)&lt;br&gt;Options" style="rounded=0;whiteSpace=wrap;html=1;" parent="1" vertex="1">
                    <mxGeometry x="830" y="1200" width="120" height="60" as="geometry"/>
                </mxCell>
                <mxCell id="0JONFG1SsR9goqJM7D2y-34" value="&lt;div&gt;type Config {&lt;/div&gt;&lt;div&gt;&lt;span&gt;&#9;&lt;/span&gt;&lt;span&gt;&#9;&lt;/span&gt;&lt;span style=&quot;white-space: pre&quot;&gt;&#9;&lt;/span&gt;theme: undefined | 'DARK' | 'LIGHT';&lt;/div&gt;&lt;div&gt;&lt;span&gt;&#9;&lt;/span&gt;&lt;span&gt;&#9;&lt;/span&gt;&lt;span style=&quot;white-space: pre&quot;&gt;&#9;&lt;/span&gt;guessConfig: GuessConfig&lt;/div&gt;&lt;div&gt;}&lt;/div&gt;&lt;div&gt;&lt;br&gt;&lt;/div&gt;&lt;div&gt;type GuessConfig =&amp;nbsp;&lt;/div&gt;&lt;div&gt;&lt;span&gt;&#9;&lt;/span&gt;&lt;span&gt;&#9;&lt;/span&gt;&lt;span style=&quot;white-space: pre&quot;&gt;&#9;&lt;/span&gt;{ wordLength: 5; wordGuessCount: 6 } |&lt;/div&gt;&lt;div&gt;&lt;span&gt;&#9;&lt;/span&gt;&lt;span&gt;&#9;&lt;/span&gt;&lt;span style=&quot;white-space: pre&quot;&gt;&#9;&lt;/span&gt;{ wordLength: 6; wordGuessCount: 8 } |&lt;/div&gt;&lt;div&gt;&lt;span&gt;&#9;&lt;/span&gt;&lt;span&gt;&#9;&lt;/span&gt;&lt;span style=&quot;white-space: pre&quot;&gt;&#9;&lt;/span&gt;{ wordLength: 7; wordGuessCount: 10 };&lt;/div&gt;&lt;div&gt;&lt;br&gt;&lt;/div&gt;&lt;div&gt;&lt;div&gt;&lt;br&gt;&lt;/div&gt;&lt;div&gt;type Stats {&lt;/div&gt;&lt;div&gt;&lt;span&gt;&#9;&lt;/span&gt;&lt;span style=&quot;white-space: pre&quot;&gt;&#9;&lt;/span&gt;total: number;&lt;/div&gt;&lt;div&gt;&lt;span&gt;&#9;&lt;/span&gt;&lt;span style=&quot;white-space: pre&quot;&gt;&#9;&lt;/span&gt;won: number;&lt;/div&gt;&lt;div&gt;&lt;span&gt;&#9;&lt;/span&gt;&lt;span style=&quot;white-space: pre&quot;&gt;&#9;&lt;/span&gt;lost: number;&lt;/div&gt;&lt;div&gt;&lt;span&gt;&#9;&lt;/span&gt;&lt;span style=&quot;white-space: pre&quot;&gt;&#9;&lt;/span&gt;abandon: number;&lt;/div&gt;&lt;div&gt;}&lt;/div&gt;&lt;div&gt;&lt;br&gt;&lt;/div&gt;&lt;div&gt;type ExlustionList = string[];&lt;/div&gt;&lt;div&gt;&lt;br&gt;&lt;/div&gt;&lt;div&gt;type CurrentGame = {&lt;/div&gt;&lt;div&gt;&lt;span&gt;&#9;&lt;/span&gt;&lt;span style=&quot;white-space: pre&quot;&gt;&#9;&lt;/span&gt;guessWordList: string[];&lt;/div&gt;&lt;div&gt;&lt;span&gt;&#9;&lt;/span&gt;&lt;span style=&quot;white-space: pre&quot;&gt;&#9;&lt;/span&gt;word: string;&lt;/div&gt;&lt;div&gt;};&lt;/div&gt;&lt;/div&gt;&lt;div&gt;&lt;br&gt;&lt;/div&gt;&lt;div&gt;&lt;br&gt;&lt;/div&gt;" style="text;html=1;strokeColor=none;fillColor=none;align=left;verticalAlign=middle;whiteSpace=wrap;rounded=0;" parent="1" vertex="1">
                    <mxGeometry x="1030" y="1200" width="280" height="420" as="geometry"/>
                </mxCell>
            </root>
        </mxGraphModel>
    </diagram>
</mxfile>